<svg class="svgIcon-use" width="40" height="40" viewBox="0 0 29 29"><path d="M16.39 23.61v-5.808h1.846a.55.55 0 0 0 .546-.48l.36-2.797a.551.551 0 0 0-.547-.62H16.39V12.67c0-.67.12-.813.828-.813h1.474a.55.55 0 0 0 .55-.55V8.803a.55.55 0 0 0-.477-.545c-.436-.06-1.36-.116-2.22-.116-2.5 0-4.13 1.62-4.13 4.248v1.513H10.56a.551.551 0 0 0-.55.55v2.797c0 .304.248.55.55.55h1.855v5.76c-4.172-.96-7.215-4.7-7.215-9.1 0-5.17 4.17-9.36 9.31-9.36 5.14 0 9.31 4.19 9.31 9.36 0 4.48-3.155 8.27-7.43 9.15M14.51 4C8.76 4 4.1 8.684 4.1 14.46c0 5.162 3.75 9.523 8.778 10.32a.55.55 0 0 0 .637-.543v-6.985a.551.551 0 0 0-.55-.55H11.11v-1.697h1.855a.55.55 0 0 0 .55-.55v-2.063c0-2.02 1.136-3.148 3.03-3.148.567 0 1.156.027 1.597.06v1.453h-.924c-1.363 0-1.93.675-1.93 1.912v1.78c0 .3.247.55.55.55h2.132l-.218 1.69H15.84c-.305 0-.55.24-.55.55v7.02c0 .33.293.59.623.54 5.135-.7 9.007-5.11 9.007-10.36C24.92 8.68 20.26 4 14.51 4"></path></svg>
